<svg width="128" height="128" viewBox="0 0 128 128" fill="none" xmlns="http://www.w3.org/2000/svg">
<rect x="8" y="29" width="112" height="86" rx="9" fill="#F6F4EF" stroke="black" stroke-width="2"/>
<path d="M28.0449 98.8486C28.625 98.8486 29.1318 98.6729 29.5654 98.3213C29.999 97.9697 30.2393 97.5303 30.2861 97.0029H31.8242C31.7949 97.5479 31.6074 98.0664 31.2617 98.5586C30.916 99.0508 30.4531 99.4434 29.873 99.7363C29.2988 100.029 28.6895 100.176 28.0449 100.176C26.75 100.176 25.7188 99.7451 24.9512 98.8838C24.1895 98.0166 23.8086 96.833 23.8086 95.333V95.0605C23.8086 94.1348 23.9785 93.3115 24.3184 92.5908C24.6582 91.8701 25.1445 91.3105 25.7773 90.9121C26.416 90.5137 27.1689 90.3145 28.0361 90.3145C29.1025 90.3145 29.9873 90.6338 30.6904 91.2725C31.3994 91.9111 31.7773 92.7402 31.8242 93.7598H30.2861C30.2393 93.1445 30.0049 92.6406 29.583 92.248C29.167 91.8496 28.6514 91.6504 28.0361 91.6504C27.21 91.6504 26.5684 91.9492 26.1113 92.5469C25.6602 93.1387 25.4346 93.9971 25.4346 95.1221V95.4297C25.4346 96.5254 25.6602 97.3691 26.1113 97.9609C26.5625 98.5527 27.207 98.8486 28.0449 98.8486ZM32.6817 95.1572C32.6817 94.2256 32.8633 93.3877 33.2266 92.6436C33.5957 91.8994 34.1055 91.3252 34.7559 90.9209C35.4121 90.5166 36.1592 90.3145 36.9971 90.3145C38.292 90.3145 39.3379 90.7627 40.1348 91.6592C40.9375 92.5557 41.3389 93.748 41.3389 95.2363V95.3506C41.3389 96.2764 41.1602 97.1084 40.8028 97.8467C40.4512 98.5791 39.9444 99.1504 39.2823 99.5605C38.626 99.9707 37.8702 100.176 37.0147 100.176C35.7256 100.176 34.6797 99.7275 33.877 98.8311C33.0801 97.9346 32.6817 96.748 32.6817 95.2715V95.1572ZM34.3164 95.3506C34.3164 96.4053 34.5596 97.252 35.0459 97.8906C35.5381 98.5293 36.1944 98.8486 37.0147 98.8486C37.8409 98.8486 38.4971 98.5264 38.9834 97.8818C39.4698 97.2314 39.7129 96.3232 39.7129 95.1572C39.7129 94.1143 39.4639 93.2705 38.9659 92.626C38.4737 91.9756 37.8174 91.6504 36.9971 91.6504C36.1944 91.6504 35.5469 91.9697 35.0547 92.6084C34.5625 93.2471 34.3164 94.1611 34.3164 95.3506ZM44.3673 90.4902L44.4112 91.5449C45.1085 90.7246 46.0489 90.3145 47.2325 90.3145C48.5626 90.3145 49.4679 90.8242 49.9483 91.8438C50.2647 91.3867 50.6749 91.0176 51.1788 90.7363C51.6886 90.4551 52.2891 90.3145 52.9805 90.3145C55.0665 90.3145 56.127 91.4189 56.1622 93.6279V100H54.5362V93.7246C54.5362 93.0449 54.3809 92.5381 54.0704 92.2041C53.7598 91.8643 53.2384 91.6943 52.5059 91.6943C51.9024 91.6943 51.4014 91.876 51.003 92.2393C50.6046 92.5967 50.3731 93.0801 50.3087 93.6895V100H48.6739V93.7686C48.6739 92.3857 47.9971 91.6943 46.6436 91.6943C45.5772 91.6943 44.8477 92.1484 44.4552 93.0566V100H42.8292V90.4902H44.3673ZM59.6124 90.4902L59.6564 91.5449C60.3536 90.7246 61.2941 90.3145 62.4777 90.3145C63.8077 90.3145 64.713 90.8242 65.1935 91.8438C65.5099 91.3867 65.92 91.0176 66.4239 90.7363C66.9337 90.4551 67.5343 90.3145 68.2257 90.3145C70.3116 90.3145 71.3722 91.4189 71.4073 93.6279V100H69.7814V93.7246C69.7814 93.0449 69.6261 92.5381 69.3155 92.2041C69.005 91.8643 68.4835 91.6943 67.7511 91.6943C67.1476 91.6943 66.6466 91.876 66.2482 92.2393C65.8497 92.5967 65.6183 93.0801 65.5538 93.6895V100H63.9191V93.7686C63.9191 92.3857 63.2423 91.6943 61.8888 91.6943C60.8224 91.6943 60.0929 92.1484 59.7003 93.0566V100H58.0743V90.4902H59.6124ZM79.1994 100C79.1056 99.8125 79.0295 99.4785 78.9709 98.998C78.215 99.7832 77.3127 100.176 76.2638 100.176C75.3263 100.176 74.5558 99.9121 73.9523 99.3848C73.3546 98.8516 73.0558 98.1777 73.0558 97.3633C73.0558 96.373 73.4308 95.6055 74.1808 95.0605C74.9367 94.5098 75.9972 94.2344 77.3625 94.2344H78.9445V93.4873C78.9445 92.9189 78.7746 92.4678 78.4347 92.1338C78.0949 91.7939 77.5939 91.624 76.9318 91.624C76.3517 91.624 75.8654 91.7705 75.4728 92.0635C75.0802 92.3564 74.8839 92.7109 74.8839 93.127H73.2492C73.2492 92.6523 73.4162 92.1953 73.7502 91.7559C74.09 91.3105 74.547 90.959 75.1213 90.7012C75.7013 90.4434 76.3371 90.3145 77.0285 90.3145C78.1242 90.3145 78.9826 90.5898 79.6037 91.1406C80.2248 91.6855 80.547 92.4385 80.5705 93.3994V97.7764C80.5705 98.6494 80.6818 99.3438 80.9045 99.8594V100H79.1994ZM76.5011 98.7607C77.0109 98.7607 77.4943 98.6289 77.9513 98.3652C78.4084 98.1016 78.7394 97.7588 78.9445 97.3369V95.3857H77.6701C75.6779 95.3857 74.6818 95.9688 74.6818 97.1348C74.6818 97.6445 74.8517 98.043 75.1916 98.3301C75.5314 98.6172 75.9679 98.7607 76.5011 98.7607ZM84.1174 90.4902L84.1701 91.6855C84.8967 90.7715 85.8459 90.3145 87.0178 90.3145C89.0275 90.3145 90.0412 91.4482 90.0588 93.7158V100H88.4328V93.707C88.427 93.0215 88.2687 92.5146 87.9582 92.1865C87.6535 91.8584 87.176 91.6943 86.5256 91.6943C85.9982 91.6943 85.5354 91.835 85.1369 92.1162C84.7385 92.3975 84.4279 92.7666 84.2053 93.2236V100H82.5793V90.4902H84.1174ZM91.5754 95.166C91.5754 93.707 91.9211 92.5352 92.6125 91.6504C93.3039 90.7598 94.2092 90.3145 95.3284 90.3145C96.4416 90.3145 97.3235 90.6953 97.9739 91.457V86.5H99.5998V100H98.1057L98.0266 98.9805C97.3762 99.7773 96.4709 100.176 95.3108 100.176C94.2092 100.176 93.3098 99.7246 92.6125 98.8223C91.9211 97.9199 91.5754 96.7422 91.5754 95.2891V95.166ZM93.2014 95.3506C93.2014 96.4287 93.4241 97.2725 93.8694 97.8818C94.3147 98.4912 94.9299 98.7959 95.7151 98.7959C96.7463 98.7959 97.4993 98.333 97.9739 97.4072V93.0391C97.4875 92.1426 96.7405 91.6943 95.7327 91.6943C94.9358 91.6943 94.3147 92.002 93.8694 92.6172C93.4241 93.2324 93.2014 94.1436 93.2014 95.3506ZM101.16 95.1572C101.16 94.2256 101.342 93.3877 101.705 92.6436C102.074 91.8994 102.584 91.3252 103.235 90.9209C103.891 90.5166 104.638 90.3145 105.476 90.3145C106.771 90.3145 107.817 90.7627 108.614 91.6592C109.416 92.5557 109.818 93.748 109.818 95.2363V95.3506C109.818 96.2764 109.639 97.1084 109.282 97.8467C108.93 98.5791 108.423 99.1504 107.761 99.5605C107.105 99.9707 106.349 100.176 105.493 100.176C104.204 100.176 103.158 99.7275 102.356 98.8311C101.559 97.9346 101.16 96.748 101.16 95.2715V95.1572ZM102.795 95.3506C102.795 96.4053 103.038 97.252 103.525 97.8906C104.017 98.5293 104.673 98.8486 105.493 98.8486C106.32 98.8486 106.976 98.5264 107.462 97.8818C107.949 97.2314 108.192 96.3232 108.192 95.1572C108.192 94.1143 107.943 93.2705 107.445 92.626C106.952 91.9756 106.296 91.6504 105.476 91.6504C104.673 91.6504 104.026 91.9697 103.533 92.6084C103.041 93.2471 102.795 94.1611 102.795 95.3506Z" fill="#666666"/>
<path d="M91.712 62C90.4053 62 89.36 61.6173 88.576 60.852C87.8107 60.0867 87.428 59.06 87.428 57.772C87.428 56.4093 87.8293 55.3547 88.632 54.608C89.4533 53.8427 90.6573 53.46 92.244 53.46H93.896V50.38H92.244C90.6573 50.38 89.4533 50.0067 88.632 49.26C87.8293 48.4947 87.428 47.4307 87.428 46.068C87.428 44.78 87.8107 43.7533 88.576 42.988C89.36 42.2227 90.4053 41.84 91.712 41.84C92.7573 41.84 93.5787 42.036 94.176 42.428C94.792 42.82 95.2213 43.3427 95.464 43.996C95.7253 44.6493 95.856 45.368 95.856 46.152V48.476H98.936V46.152C98.936 45.368 99.0573 44.6493 99.3 43.996C99.5613 43.3427 99.9907 42.82 100.588 42.428C101.204 42.036 102.035 41.84 103.08 41.84C104.387 41.84 105.423 42.2227 106.188 42.988C106.972 43.7533 107.364 44.78 107.364 46.068C107.364 47.4307 106.953 48.4947 106.132 49.26C105.329 50.0067 104.135 50.38 102.548 50.38H100.896V53.46H102.548C104.135 53.46 105.329 53.8427 106.132 54.608C106.953 55.3547 107.364 56.4093 107.364 57.772C107.364 59.06 106.972 60.0867 106.188 60.852C105.423 61.6173 104.387 62 103.08 62C102.035 62 101.204 61.804 100.588 61.412C99.9907 61.02 99.5613 60.4973 99.3 59.844C99.0573 59.1907 98.936 58.472 98.936 57.688V55.364H95.856V57.688C95.856 58.472 95.7253 59.1907 95.464 59.844C95.2213 60.4973 94.792 61.02 94.176 61.412C93.5787 61.804 92.7573 62 91.712 62ZM100.896 46.096V48.476H102.548C103.537 48.476 104.256 48.28 104.704 47.888C105.152 47.4773 105.376 46.8707 105.376 46.068C105.376 45.2467 105.152 44.6587 104.704 44.304C104.275 43.9493 103.733 43.772 103.08 43.772C102.352 43.772 101.801 43.9867 101.428 44.416C101.073 44.8267 100.896 45.3867 100.896 46.096ZM92.244 48.476H93.896V46.096C93.896 45.3867 93.7093 44.8267 93.336 44.416C92.9813 43.9867 92.44 43.772 91.712 43.772C91.0587 43.772 90.508 43.9493 90.06 44.304C89.6307 44.6587 89.416 45.2467 89.416 46.068C89.416 46.8707 89.64 47.4773 90.088 47.888C90.536 48.28 91.2547 48.476 92.244 48.476ZM95.856 53.46H98.936V50.38H95.856V53.46ZM91.712 60.068C92.44 60.068 92.9813 59.8627 93.336 59.452C93.7093 59.0227 93.896 58.4533 93.896 57.744V55.364H92.244C91.2547 55.364 90.536 55.5693 90.088 55.98C89.64 56.372 89.416 56.9693 89.416 57.772C89.416 58.5933 89.6307 59.1813 90.06 59.536C90.508 59.8907 91.0587 60.068 91.712 60.068ZM100.896 57.744C100.896 58.4533 101.073 59.0227 101.428 59.452C101.801 59.8627 102.352 60.068 103.08 60.068C103.733 60.068 104.275 59.8907 104.704 59.536C105.152 59.1813 105.376 58.5933 105.376 57.772C105.376 56.9693 105.152 56.372 104.704 55.98C104.256 55.5693 103.537 55.364 102.548 55.364H100.896V57.744Z" fill="#666666"/>
<path d="M27.6383 4.76304C30.5747 5.98978 33.9643 9.03089 33.1383 9.76304L36.1383 7.76304C36.1383 7.76304 32.8695 2.26304 30.1383 1.26304C27.4071 0.263038 24.7019 3.5363 27.6383 4.76304Z" fill="#0B0B0B" stroke="black" stroke-width="2"/>
<path d="M6.50006 57C47.6363 30.2028 53.7583 28.0783 77.012 28.9419C77.8894 28.9744 78.6923 28.4403 78.8863 27.584C79.8482 23.3386 81.2703 10.6034 66 4.00001C58.0945 0.581418 45 -9.53674e-07 33 5.5C21 11 10.5 29.6402 10.5 29.6402C-1.65562 47.6958 6.50006 57 6.50006 57Z" fill="#A10705"/>
<path d="M77.012 28.9419L76.9749 29.9412L77.012 28.9419ZM6.50006 57L5.74806 57.6592C6.07599 58.0333 6.62904 58.1094 7.04589 57.8379L6.50006 57ZM66 4.00001L65.6031 4.91787L66 4.00001ZM78.8863 27.584L79.8616 27.8049L78.8863 27.584ZM10.5 29.6402L11.3295 30.1986L11.3518 30.1656L11.3713 30.131L10.5 29.6402ZM77.0491 27.9425C65.3758 27.5091 57.8672 27.8191 48.0955 31.6677C38.4033 35.4851 26.4997 42.7783 5.95423 56.1621L7.04589 57.8379C27.6367 44.4245 39.3622 37.257 48.8285 33.5286C58.2153 29.8315 65.3946 29.5111 76.9749 29.9412L77.0491 27.9425ZM65.6031 4.91787C72.98 8.10787 76.2335 12.7222 77.5766 16.9772C78.935 21.2807 78.3722 25.3278 77.911 27.363L79.8616 27.8049C80.3624 25.5947 80.9915 21.1516 79.4838 16.3752C77.9609 11.5505 74.2903 6.49552 66.3969 3.08215L65.6031 4.91787ZM6.50006 57C7.25205 56.3408 7.25257 56.3414 7.25306 56.342C7.25318 56.3421 7.25363 56.3426 7.25388 56.3429C7.25436 56.3435 7.25472 56.3439 7.25496 56.3442C7.25545 56.3447 7.25545 56.3447 7.25499 56.3442C7.25406 56.3431 7.25126 56.3398 7.2467 56.3343C7.23757 56.3233 7.2214 56.3035 7.19902 56.2749C7.15426 56.2177 7.08475 56.1254 6.99725 55.9982C6.82221 55.7437 6.57553 55.3501 6.31088 54.8185C5.78208 53.7562 5.18045 52.141 4.93531 49.9783C4.44726 45.6725 5.35935 39.0666 11.3295 30.1986L9.67049 29.0817C3.48505 38.2694 2.39716 45.3434 2.94804 50.2036C3.22236 52.6238 3.89992 54.4632 4.52045 55.7097C4.83047 56.3325 5.12598 56.8068 5.34947 57.1317C5.46123 57.2942 5.55507 57.4194 5.62385 57.5073C5.65824 57.5513 5.68638 57.5859 5.70737 57.6112C5.71787 57.6239 5.72658 57.6342 5.7334 57.6422C5.73681 57.6462 5.73974 57.6496 5.74219 57.6524C5.74342 57.6538 5.74452 57.6551 5.7455 57.6562C5.74599 57.6568 5.74663 57.6575 5.74687 57.6578C5.74748 57.6585 5.74806 57.6592 6.50006 57ZM33.4167 6.40906C45.1712 1.02157 57.9699 1.61701 65.6031 4.91787L66.3969 3.08215C58.2192 -0.454177 44.8288 -1.02157 32.5833 4.59093L33.4167 6.40906ZM10.5 29.6402C11.3713 30.131 11.3713 30.131 11.3712 30.1311C11.3713 30.131 11.3713 30.1309 11.3714 30.1307C11.3716 30.1304 11.372 30.1297 11.3725 30.1288C11.3736 30.127 11.3752 30.124 11.3775 30.1199C11.3822 30.1118 11.3893 30.0992 11.3989 30.0824C11.4182 30.0486 11.4474 29.9977 11.4863 29.9306C11.564 29.7963 11.6804 29.5972 11.8334 29.3409C12.1392 28.8283 12.5909 28.0875 13.1707 27.1803C14.331 25.365 16.0016 22.8883 18.0418 20.2434C22.1508 14.9166 27.6514 9.05146 33.4167 6.40906L32.5833 4.59093C26.3486 7.44854 20.5992 13.6535 16.4582 19.0218C14.3735 21.7244 12.669 24.2516 11.4856 26.1032C10.8935 27.0294 10.4311 27.7878 10.1159 28.3161C9.95827 28.5802 9.8374 28.7869 9.75549 28.9284C9.71453 28.9991 9.68331 29.0535 9.66209 29.0907C9.65148 29.1093 9.64338 29.1235 9.63781 29.1334C9.63503 29.1383 9.63287 29.1421 9.63136 29.1447C9.63061 29.1461 9.63001 29.1471 9.62957 29.1479C9.62935 29.1483 9.62915 29.1487 9.62904 29.1489C9.62887 29.1492 9.62874 29.1494 10.5 29.6402ZM76.9749 29.9412C78.2618 29.989 79.5463 29.1967 79.8616 27.8049L77.911 27.363C77.8383 27.6838 77.517 27.9599 77.0491 27.9425L76.9749 29.9412Z" fill="#0B0B0B"/>
</svg>
